<svg width="46" height="45" fill="none" xmlns="http://www.w3.org/2000/svg"><g clip-path="url(#a)" fill="#C8102E" stroke="#C8102E" stroke-width=".5"><path d="M28.403 17.917h-9.83a.764.764 0 1 0 0 1.523h9.83a.765.765 0 0 0 0-1.523ZM28.403 23.126h-9.83a.764.764 0 1 0 0 1.523h9.83a.764.764 0 0 0 0-1.523ZM28.403 28.336h-9.83a.764.764 0 1 0 0 1.523h9.83a.765.765 0 0 0 0-1.523ZM28.403 33.547h-9.83a.764.764 0 1 0 0 1.523h9.83a.764.764 0 1 0 0-1.523ZM28.403 38.764h-9.83a.765.765 0 0 0 0 1.523h9.83a.764.764 0 1 0 0-1.523Z"/><path d="M43.874 24.135H32.988v-12.17a.764.764 0 0 0-.765-.764h-2.551l-2.804-6.563a.764.764 0 0 0-.704-.466h-1.909V1.11a.764.764 0 1 0-1.523 0v3.056h-1.914a.764.764 0 0 0-.703.467L17.311 11.2h-2.55a.764.764 0 0 0-.765.765v5.954H3.11a.764.764 0 0 0-.764.764v25.205a.764.764 0 0 0 .764.765h40.764a.764.764 0 0 0 .764-.765V24.9a.764.764 0 0 0-.764-.764ZM21.329 5.694h4.324l2.354 5.507h-9.03l2.352-5.507ZM3.873 19.444h10.122v23.687H3.873V19.444Zm11.65 23.677V12.73H31.46V43.13l-15.935-.01Zm27.586 0H32.988V25.662h10.121v17.46Z"/><path d="M10.909 21.514h-4.04a.764.764 0 0 0-.765.765v4.04a.764.764 0 0 0 .764.764h4.04a.764.764 0 0 0 .765-.764v-4.04a.765.765 0 0 0-.764-.765Zm-.765 4.042H7.631V23.04h2.513v2.515ZM10.909 28.336h-4.04a.764.764 0 0 0-.765.765v4.04a.764.764 0 0 0 .764.764h4.04a.764.764 0 0 0 .765-.764V29.1a.764.764 0 0 0-.764-.765Zm-.765 4.042H7.631v-2.515h2.513v2.515ZM10.909 35.158h-4.04a.764.764 0 0 0-.765.764v4.04a.764.764 0 0 0 .764.765h4.04a.764.764 0 0 0 .765-.764v-4.04a.765.765 0 0 0-.764-.765Zm-.765 4.042H7.631v-2.515h2.513V39.2ZM35.898 33.905h4.04a.764.764 0 0 0 .765-.764V29.1a.764.764 0 0 0-.765-.765h-4.04a.765.765 0 0 0-.764.765v4.04a.764.764 0 0 0 .764.764Zm.764-4.042h2.514v2.514H36.66l.001-2.514ZM35.898 40.727h4.04a.764.764 0 0 0 .765-.764v-4.04a.764.764 0 0 0-.765-.765h-4.04a.765.765 0 0 0-.764.764v4.04a.764.764 0 0 0 .764.765Zm.764-4.042h2.514V39.2H36.66l.001-2.514Z"/></g><defs><clipPath id="a"><path fill="#fff" transform="translate(2)" d="M0 0h42.983v45H0z"/></clipPath></defs></svg>
