<svg version="1.1" id="Isolation_Mode" xmlns="http://www.w3.org/2000/svg" x="0" y="0" viewBox="0 0 50 50" style="enable-background:new 0 0 50 50" xml:space="preserve"><style>.st0{fill:#c8102e}</style><path class="st0" d="M41.5 20.4c.1-.9 1.3-1.7 1.3-2.6 0-.9-1.1-1.7-1.3-2.6-.1-.9.7-2 .4-2.9-.3-.9-1.6-1.3-2-2.1-.4-.8 0-2.1-.5-2.9-.5-.7-1.9-.7-2.6-1.4-.6-.6-.6-2-1.4-2.6-.7-.5-2.1-.1-2.9-.5-.8-.4-1.2-1.7-2.1-2-.9-.3-2 .5-2.9.4C26.7 1.1 25.9 0 25 0c-.9 0-1.7 1.1-2.6 1.3-.9.1-2-.7-2.9-.4-.9.3-1.3 1.6-2.1 2-.8.4-2.1 0-2.9.5-.7.5-.7 1.9-1.4 2.6-.6.6-2 .6-2.6 1.4-.5.7-.1 2.1-.5 2.9-.4.8-1.7 1.2-2 2.1-.3.9.5 2 .4 2.9-.1.9-1.3 1.7-1.3 2.6 0 .9 1.1 1.7 1.3 2.6.1.9-.7 2-.4 2.9.3.9 1.6 1.3 2 2.1.4.8 0 2.1.5 2.9.5.7 1.9.7 2.6 1.4s.6 2 1.4 2.6c.2.1.3.2.5.2.7.2 1.7 0 2.3.3.8.4 1.2 1.7 2.1 2 .8.3 1.9-.5 2.8-.4h.1c.9.1 1.7 1.3 2.6 1.3.9 0 1.7-1.1 2.6-1.3h.3c.8 0 1.8.7 2.6.4.9-.3 1.3-1.6 2.1-2 .7-.3 1.7-.1 2.5-.3.1 0 .3-.1.4-.2.7-.5.7-1.9 1.4-2.6s2-.6 2.6-1.4c.5-.7.1-2.1.5-2.9.4-.8 1.7-1.2 2-2.1.3-.9-.5-2.1-.4-3z"/><path class="st0" d="M35.3 33s0 .1 0 0c-.5.1-.9.2-1.3.2s-.8 0-1.1.1c-.2.1-.5.5-.7.8-.4.5-.8 1.1-1.5 1.3-.2.1-.4.1-.6.1-.5 0-.9-.1-1.3-.3-.2 0-.3-.1-.5-.1L25.4 42l3.2 8 4.2-6.3 7.4 1.6L35.3 33zM26.8 35.5c-.5.4-1.1.8-1.8.8s-1.3-.4-1.8-.8c-.3-.2-.7-.5-.9-.5h-.1c-.3 0-.6.1-.9.2-.4.1-.9.3-1.3.3-.2 0-.4 0-.6-.1-.7-.2-1.1-.8-1.5-1.3-.2-.3-.5-.7-.7-.8-.2-.1-.7-.1-1.1-.1-.4 0-.7 0-1.1-.1h-.1l-5.1 12 7.4-1.4 4.1 6.3 3.8-8.9 2.6-6c-.3 0-.6.2-.9.4z"/><circle cx="25" cy="17.8" r="12" style="fill:#fff"/><path class="st0" d="M23.2 22.8c-.2 0-.4-.1-.5-.2l-3.4-3.4c-.3-.3-.3-.8 0-1.1.3-.3.8-.3 1.1 0l3.4 3.4c.3.3.3.8 0 1.1-.2.1-.4.2-.6.2z"/><path class="st0" d="M23.2 22.8c-.2 0-.4-.1-.5-.2-.3-.3-.3-.8-.1-1.1l7-7.9c.3-.3.8-.3 1.1-.1.3.3.3.8.1 1.1l-7 7.9c-.2.2-.4.3-.6.3z"/></svg>
