<svg xmlns="http://www.w3.org/2000/svg" width="50" height="50"><path d="m9.121.832 2.47-.01C13.32.817 15.046.815 16.774.815c2.649-.002 5.298-.02 7.947-.04C26.396.772 28.07.77 29.746.77l2.412-.022C37.77.77 37.77.77 40 3c.125 3.125.125 3.125 0 6h-3V4H2v44h32l-1-5-1.634 1.976c-2.97 2.54-4.368 2.493-8.225 2.415l-3.046-.03-3.845-.111L4 47V7h3V5h25v2h2v2h-2v2l2-1c3.794-.531 7.463-.85 10.89 1.047 2.942 2.427 4.933 4.314 5.348 8.16.202 7.065.202 7.065-2.05 10.793C46 32 46 32 43 34a62.509 62.509 0 0 0-.125 7.563c.078 2.482.12 4.952.125 7.437-1 1-1 1-4.969 1.114-1.772 0-3.544-.006-5.316-.016l-2.82-.005c-2.986-.005-5.972-.018-8.957-.03A7811.269 7811.269 0 0 1 0 50c-.025-6.818-.043-13.635-.055-20.453a4501.28 4501.28 0 0 0-.02-6.964c-.013-3.328-.018-6.657-.023-9.985l-.015-3.166V6.52L-.12 3.943C.173-.791 5.487.837 9.12.832ZM10 7v2h19V7H10Zm-3 5v1c1.583.17 3.166.335 4.75.5l2.672.281c2.811.275 2.811.275 6.578.219h9l1-2H7Zm32 1-1 2-2.5 1.438C32.708 17.813 32.708 17.813 32 21l-2 1-1-3c.19 5.77.19 5.77 3.125 10.5 3.676 1.918 5.78 2.158 9.875 1.5 3.286-2.429 4.708-4.123 6-8 0-3.626-.792-5.16-3-8-2.815-2.277-2.815-2.277-6-2ZM7 15v30h19l1-6 7-1 1-5-2.813-1.625C28.76 28.821 27.598 26.902 26 23h-8v-3h9l1-5c-2.416-.167-2.416-.167-5 0l-2 2c-4.556-.556-4.556-.556-6-2H7Zm30 22v8h4v-8h-4Z" fill="#C8102E"/><path d="M8 27h9v8H8v-8Zm2 2v3h4v-3h-4ZM8 37h9v7H8v-7Zm2 2v3h4v-3h-4ZM8 18h9v7H8v-7Zm2 2v3h4v-3h-4ZM18 29h7l1 3h-8v-3ZM18 39h7v3h-7v-3Z" fill="#C8102E"/></svg>
