<svg xmlns="http://www.w3.org/2000/svg" width="164.385" height="32.528"><defs><clipPath id="a"><path fill="none" d="M0 0h164.385v32.528H0z"/></clipPath></defs><g clip-path="url(#a)"><path d="m61.487 21.364 1.932-12.953 3.225-.481-.555 3.686h3.237l-.4 2.63h-3.233l-1.042 6.983c-.06.438.115.644.582.644a6.732 6.732 0 0 0 2.168-.568l.743 2.105a8.433 8.433 0 0 1-3.953.985 2.462 2.462 0 0 1-2.707-3.031m95.058 0 1.934-12.953 3.223-.481-.555 3.686h3.237l-.4 2.63h-3.232l-1.041 6.983c-.06.438.114.644.581.644a6.725 6.725 0 0 0 2.168-.568l.742 2.105a8.422 8.422 0 0 1-3.952.985 2.461 2.461 0 0 1-2.707-3.031m-77.661-6.169a.666.666 0 0 0-.685-.866 9.966 9.966 0 0 0-3.71 1.466l-1.246 8.347h-3.145L71.938 11.8l2.684-.4-.005 1.52a11.653 11.653 0 0 1 5.077-1.575 2.288 2.288 0 0 1 2.456 2.492 6.07 6.07 0 0 1-.091 1.233L80.7 24.147h-3.153Zm8.124 5.271c-.1.719-.157 1.338.989 1.338a11.837 11.837 0 0 0 4.821-1.45l.746 2.369a12.168 12.168 0 0 1-5.928 1.652c-3.359 0-4.093-1.847-3.7-4.47l.574-3.814c.453-2.954 1.783-4.755 5.606-4.759 2.425 0 4.1 1.233 4.163 3.261.069 2.236-1.375 3.528-4.8 4.586-1.522.463-1.782.537-2.38.694Zm4.276-5.743c-.018-.558-.524-.974-1.356-.974a2.087 2.087 0 0 0-2.218 2.061l-.2 1.282c.442-.126.571-.173 1.831-.564 1.391-.442 1.97-.981 1.945-1.8m54.107-.547c-1.462.8-2.361 1.391-3.688 2.245l-1.154 7.721h-3.149l1.845-12.332 2.7-.406-.07 1.824a16.548 16.548 0 0 1 3.193-1.858Zm.153 9.409.519-2.337a11.626 11.626 0 0 0 3.56.638c1.384 0 1.662-.229 1.793-1.1.1-.777-.033-1.056-1.939-1.98-2.714-1.313-3.038-2.269-2.756-4.166.36-2.519 1.35-3.293 4.683-3.3a13.732 13.732 0 0 1 3.789.613l-.44 2.366a14.154 14.154 0 0 0-3.3-.483c-1.25 0-1.612.054-1.744.951-.128.85.113 1.031 1.52 1.771 2.96 1.57 3.5 2.059 3.215 4.041-.4 2.8-1.328 3.779-4.9 3.781a11.733 11.733 0 0 1-4.005-.8m-39.735 0 .52-2.337a11.626 11.626 0 0 0 3.56.638c1.384 0 1.661-.229 1.793-1.1.1-.777-.034-1.056-1.94-1.98-2.714-1.313-3.037-2.269-2.756-4.166.36-2.519 1.35-3.293 4.683-3.3a13.752 13.752 0 0 1 3.79.613l-.441 2.366a14.147 14.147 0 0 0-3.3-.483c-1.249 0-1.612.054-1.744.951-.128.85.113 1.031 1.52 1.771 2.96 1.57 3.5 2.059 3.216 4.041-.4 2.8-1.329 3.779-4.9 3.781a11.738 11.738 0 0 1-4.005-.8m-10.5 0 .519-2.337a11.632 11.632 0 0 0 3.561.638c1.384 0 1.662-.229 1.792-1.1.1-.777-.033-1.056-1.939-1.98-2.714-1.313-3.037-2.269-2.756-4.166.36-2.519 1.35-3.293 4.684-3.3a13.745 13.745 0 0 1 3.789.613l-.441 2.366a14.139 14.139 0 0 0-3.3-.483c-1.25 0-1.612.054-1.744.951-.128.85.113 1.031 1.52 1.771 2.96 1.57 3.5 2.059 3.215 4.041-.4 2.8-1.328 3.779-4.9 3.781a11.733 11.733 0 0 1-4.005-.8M50.283 11.606l.485-3.224h6.81l.42-2.8h-9.961l-3.2 21.381h3.144l1.907-12.727h6.57l-1.478 9.9h3.15l1.869-12.526Zm76.4 0 .485-3.224h6.81l.42-2.8h-9.945l-3.2 21.381h3.144l1.908-12.727h6.57l-1.479 9.9h3.15l1.868-12.526Z" fill="#fafafa"/><path d="M21.152 19.795h6.2l1.192-7.977h-6.2ZM24.113.003l-1.255 8.4h11.756l1.255-8.4Zm-5.705 24.13L22.014.003H7.267l-1.255 8.4h5.881L9.542 24.136H3.663l-1.255 8.4h20.626l1.255-8.4ZM.893 2.814H.372L.784.472h-.786l.08-.458h2.093l-.084.458h-.782ZM4.579 1.014l-.807 1.433h-.568L2.935 1.01l-.4 1.8h-.513l.639-2.8h.555l.365 1.9 1.06-1.9h.571l-.353 2.8h-.521Z" fill="#d70926"/></g></svg>
