<svg version="1.1" id="Layer_1" xmlns="http://www.w3.org/2000/svg" x="0" y="0" viewBox="0 0 190.3 186.6" style="enable-background:new 0 0 190.3 186.6" xml:space="preserve"><style>.st1{fill:#fff}</style><path style="fill:#ce0024" d="M162.4 186.6 190.3 0H27.9L0 186.6z"/><path class="st1" d="m44.3 162.7 1.9-13 3.2-.5-.6 3.7H52l-.4 2.6h-3.2l-1 7c-.1.4.1.6.6.6.6 0 1.5-.3 2.2-.6l.7 2.1c-1.1.6-2.5 1-4 1-1.9.2-2.9-1.1-2.6-2.9m95.3 0 1.9-13 3.2-.5-.6 3.7h3.2l-.4 2.6h-3.2l-1 7c-.1.4.1.6.6.6.6 0 1.5-.3 2.2-.6l.7 2.1c-1.1.6-2.5 1-4 1-1.8.2-2.8-1.1-2.6-2.9m-77.9-6.2c0-.1.1-.9-.7-.9-.8 0-2.6.8-3.7 1.5l-1.2 8.4h-3.2l1.9-12.4 2.7-.4v1.5c1.6-.9 3.6-1.6 5.1-1.6 1.7 0 2.4 1.1 2.5 2.5 0 .5 0 .8-.1 1.2l-1.4 9.1h-3.2l1.3-8.9zm8.2 5.3c-.1.7-.2 1.3 1 1.3 1.4 0 3.2-.6 4.8-1.5l.7 2.4c-1.5.9-3.8 1.7-5.9 1.7-3.4 0-4.1-1.9-3.7-4.5l.6-3.8c.5-3 1.8-4.8 5.6-4.8 2.4 0 4.1 1.2 4.2 3.3.1 2.2-1.4 3.5-4.8 4.6-1.5.5-1.8.5-2.4.7l-.1.6zm4.3-5.7c0-.6-.5-1-1.4-1-1.4 0-2.1.9-2.2 2.1l-.2 1.3c.4-.1.6-.2 1.8-.6 1.4-.5 2-1 2-1.8m54.2-.6c-1.5.8-2.4 1.4-3.7 2.3l-1.2 7.7h-3.2l1.9-12.4 2.7-.4-.1 1.8c.9-.6 2.1-1.4 3.2-1.9l.4 2.9zm.2 9.5.5-2.3c1 .3 2.3.6 3.6.6 1.4 0 1.7-.2 1.8-1.1.1-.8 0-1.1-1.9-2-2.7-1.3-3-2.3-2.8-4.2.4-2.5 1.4-3.3 4.7-3.3 1.2 0 2.8.3 3.8.6l-.4 2.4c-1-.3-2.4-.5-3.3-.5-1.3 0-1.6.1-1.8 1-.1.9.1 1 1.5 1.8 3 1.6 3.5 2.1 3.2 4.1-.4 2.8-1.3 3.8-4.9 3.8-1.2-.1-2.9-.5-4-.9m-39.9 0 .5-2.3c1 .3 2.3.6 3.6.6 1.4 0 1.7-.2 1.8-1.1.1-.8 0-1.1-1.9-2-2.7-1.3-3-2.3-2.8-4.2.4-2.5 1.4-3.3 4.7-3.3 1.2 0 2.8.3 3.8.6l-.4 2.4c-1-.3-2.4-.5-3.3-.5-1.3 0-1.6.1-1.7 1-.1.9.1 1 1.5 1.8 3 1.6 3.5 2.1 3.2 4.1-.4 2.8-1.3 3.8-4.9 3.8-1.2-.1-3-.5-4.1-.9m-10.5 0 .5-2.3c1 .3 2.3.6 3.6.6 1.4 0 1.7-.2 1.8-1.1.1-.8 0-1.1-1.9-2-2.7-1.3-3-2.3-2.8-4.2.4-2.5 1.4-3.3 4.7-3.3 1.2 0 2.8.3 3.8.6l-.4 2.4c-1-.3-2.4-.5-3.3-.5-1.3 0-1.6.1-1.7 1-.1.9.1 1 1.5 1.8 3 1.6 3.5 2.1 3.2 4.1-.4 2.8-1.3 3.8-4.9 3.8-1.3-.1-3-.5-4.1-.9m-45.1-12.1.5-3.2h6.8l.4-2.8h-10l-3.2 21.5h3.2l1.9-12.8h6.6l-1.5 9.9H41l1.9-12.6h-9.8zm76.6 0 .5-3.2h6.8l.4-2.8h-10l-3.2 21.5h3.2l1.9-12.8h6.6l-1.5 9.9h3.2l1.9-12.6h-9.8zM71 108h12.7l2.4-16.3H73.5L71 108zm6.1-40.4-2.6 17.2h24l2.6-17.2h-24zm-11.7 49.3 7.4-49.3H42.7l-2.6 17.2h12L47.3 117h-12l-2.6 17.2h42.2l2.6-17.2H65.4zM29.6 73.3h-1l.8-4.8h-1.6l.2-.9h4.2l-.1.9h-1.6zM37.2 69.6l-1.7 3h-1.2l-.5-3-.8 3.7h-1.1l1.3-5.7h1.2l.7 3.9 2.2-3.9h1.1l-.7 5.7h-1z"/></svg>
