<svg xmlns="http://www.w3.org/2000/svg" xmlns:xlink="http://www.w3.org/1999/xlink" width="24" height="24" viewBox="0 0 24 24">
  <defs>
    <clipPath id="clip-path">
      <rect id="Rectangle_509" data-name="Rectangle 509" width="24" height="24" transform="translate(288 15)" fill="none" stroke="#707070" stroke-width="1"/>
    </clipPath>
  </defs>
  <g id="Mask_Group_241" data-name="Mask Group 241" transform="translate(-288 -15)" clip-path="url(#clip-path)">
    <path id="_Color" data-name=" ↳Color" d="M8,10.91a8.532,8.532,0,0,1-4.892-1.53A8.609,8.609,0,0,1,0,5.454a8.6,8.6,0,0,1,16,0,8.608,8.608,0,0,1-3.108,3.925A8.532,8.532,0,0,1,8,10.91ZM8,1.818a3.636,3.636,0,1,0,3.637,3.636A3.64,3.64,0,0,0,8,1.818ZM8,7.637a2.182,2.182,0,1,1,2.182-2.182A2.184,2.184,0,0,1,8,7.637Z" transform="translate(292 22)" fill="rgba(0,0,0,0.6)"/>
  </g>
</svg>
