<svg width="48" height="45" fill="none" xmlns="http://www.w3.org/2000/svg"><g fill="#C8102E" clip-path="url(#a)"><path d="m14.85 7.017-.728 4.869h3.408l-1.364 9.122H12.76l-.728 4.869H23.99l.727-4.869H21.31L23.4 7.017h-8.55Z"/><path d="M22.9 18.493h3.593l.692-4.625h-3.593l-.692 4.625ZM24.617 7.017l-.726 4.868h6.815l.727-4.868h-6.816Z"/><path d="M3.202 2.5h39.787l-7.857 13.75L42.989 30H3.202V2.5ZM.702 0v45h2.5V32.5h44.097L38.01 16.25 47.296 0H.701Z"/></g><defs><clipPath id="a"><path fill="#fff" transform="translate(.701)" d="M0 0h46.598v45H0z"/></clipPath></defs></svg>
