<svg data-name="Layer 1" xmlns="http://www.w3.org/2000/svg" viewBox="0 0 192 192"><circle cx="114.5" cy="36.4" r="16.7" fill="#da1a32"/><path d="m94 55.7 12.6 5.8a63.4 63.4 0 0 0 26.7 5.9 8.4 8.4 0 0 0 5-2.4l14.1-12.2a7 7 0 0 1 9.7.3 7.1 7.1 0 0 1 .3 9.8L152.3 74a31 31 0 0 1-22.8 10.1h-19.7l-16.7 28.5 25.4 15.3a7.1 7.1 0 0 1 0 12.2l-37.7 22a9.7 9.7 0 0 1-13.6-4.3 9.6 9.6 0 0 1 4.1-12.6l18.2-9.9-13.2-7.6a4.2 4.2 0 0 0-5.6 1.4l-24.5 38.5a10 10 0 0 1-15.5 1.7 10 10 0 0 1-1.5-12.1L80 71h-.4a35.8 35.8 0 0 0-24.2 9.2l-5 4.4a7 7 0 0 1-10.6-1.4 9.2 9.2 0 0 1 2.3-12.7l17-12.1a30.7 30.7 0 0 1 20.1-5.8h2.9A34.8 34.8 0 0 1 94 55.7Z" fill="#da1a32"/></svg>
