<svg data-name="Layer 1" xmlns="http://www.w3.org/2000/svg" viewBox="0 0 192 192"><circle cx="35.3" cy="68.8" r="14.8" transform="rotate(-13.3 35.007 68.85)" fill="#da1a32"/><path d="M171.7 161.7c-2.2-9.2-8-32.7-9.8-40.1a20.3 20.3 0 0 1-.7-4.3c-.9-11.3-4.7-38.8-21.9-57.6l-.3-.4-.2-.2-2.8-3a126.1 126.1 0 0 0-34.3-26.2 7.7 7.7 0 0 0-10.2 3 7.3 7.3 0 0 0 3.1 10 109.3 109.3 0 0 1 33.3 26.4L113 83.2l-.3.3-3.3 3.2c-6.6 6.5-13.6 16-9.8 24.2 2.8 6.3 9.7 8 17.2 8a63.6 63.6 0 0 0 8.7-.6 21.7 21.7 0 0 1-.5 6.7l-9 36.7a7.5 7.5 0 0 0 5.1 9.2 7.4 7.4 0 0 0 9.2-5.4l10.6-43.2h6l10.5 43.2a7.4 7.4 0 0 0 9.2 5.4 7.6 7.6 0 0 0 5.1-9.2Zm-57.5-57.6a47.2 47.2 0 0 1 6.3-7.5 66.7 66.7 0 0 1 2.3 7.2 46.1 46.1 0 0 1-8.6.3Z" fill="#da1a32"/><circle cx="96.3" cy="68.8" r="14.8" transform="rotate(-13.3 96.326 68.61)" fill="#da1a32"/><path d="m108.2 159.9 1.1-4.1c-2.5-9.9-6.1-24.7-7.9-32a19.3 19.3 0 0 1-9.1-9.6c-2.4-5.1-3.2-12.8 2.9-22.6a22.8 22.8 0 0 1-21.7-22.8 23.2 23.2 0 0 1 2.9-11.1L75 56.1a126.1 126.1 0 0 0-34.3-26.2 7.7 7.7 0 0 0-10.2 3 7.3 7.3 0 0 0 3.1 10 109.3 109.3 0 0 1 33.3 26.4L52 83.2l-.3.3-3.3 3.2c-6.6 6.5-13.6 16-9.8 24.2 2.8 6.3 9.7 8 17.2 8a63.6 63.6 0 0 0 8.7-.6c.1.7.1 1.4.2 2a18.4 18.4 0 0 1-.3 3.3L55 161.8a7.5 7.5 0 0 0 5.1 9.2 7.4 7.4 0 0 0 9.2-5.4l10.6-43.2h6l10.5 43.2a7.4 7.4 0 0 0 9.2 5.4 7.1 7.1 0 0 0 3.1-1.9 16.5 16.5 0 0 1-.5-9.2Zm-55-55.8a47.2 47.2 0 0 1 6.3-7.5 66.7 66.7 0 0 1 2.3 7.2 46.1 46.1 0 0 1-8.6.3Z" fill="#da1a32"/><path d="M92.5 83.1a80.1 80.1 0 0 0-10.3-18.7 13.1 13.1 0 0 0-.7 4.4 14.8 14.8 0 0 0 11 14.3ZM98.6 104.7a11.6 11.6 0 0 0 .9 6.1c-.2-1.8-.5-3.9-.9-6.1Z" fill="#da1a32"/></svg>
