<svg data-name="Layer 1" xmlns="http://www.w3.org/2000/svg" viewBox="0 0 192 192"><path d="M180.4 80.9c-1.6 0-3 1.7-3 3.8v22.6c0 2.1 1.4 3.8 3 3.8s3-1.7 3-3.8V84.7c0-2.1-1.3-3.8-3-3.8ZM11.6 80.9c-1.7 0-3 1.7-3 3.8v22.6c0 2.1 1.3 3.8 3 3.8s3-1.7 3-3.8V84.7c0-2.1-1.4-3.8-3-3.8ZM48.6 46.6c-5.5 0-10 5.1-10 11.4v76c0 6.3 4.5 11.4 10 11.4s10.1-5.1 10.1-11.4v-28.8h73V134c0 6.3 4.5 11.4 10.1 11.4s10-5.1 10-11.4V58c0-6.3-4.5-11.4-10-11.4s-10.1 5.1-10.1 11.4v28.8h-73V58c0-6.3-4.5-11.4-10.1-11.4ZM165.1 61.8h-1a7.6 7.6 0 0 0-7.6 7.5v53.4a7.6 7.6 0 0 0 7.6 7.5h1a7.6 7.6 0 0 0 7.6-7.5V69.4a7.6 7.6 0 0 0-7.6-7.6ZM26.8 61.8h-1a7.6 7.6 0 0 0-7.6 7.5v53.4a7.6 7.6 0 0 0 7.6 7.5h1a7.6 7.6 0 0 0 7.6-7.5V69.4a7.6 7.6 0 0 0-7.6-7.6Z" fill="#da1a32"/></svg>
