<svg width="100" height="100" fill="none" xmlns="http://www.w3.org/2000/svg"><g clip-path="url(#a)"><mask id="b" style="mask-type:luminance" maskUnits="userSpaceOnUse" x="6" y="13" width="89" height="63"><path d="M94.94 13.56H6v61.81h88.94V13.56Z" fill="#fff"/></mask><g mask="url(#b)"><path d="M50.47 19.06c5.26 0 10.37 1.03 15.17 3.06a38.67 38.67 0 0 1 12.39 8.36c3.58 3.58 6.39 7.75 8.36 12.39 2.03 4.8 3.06 9.91 3.06 15.17s-1.03 10.37-3.06 15.17a38.67 38.67 0 0 1-8.36 12.39 38.996 38.996 0 0 1-12.39 8.36c-4.8 2.03-9.91 3.06-15.17 3.06S40.1 95.99 35.3 93.96a38.67 38.67 0 0 1-12.39-8.36 38.996 38.996 0 0 1-8.36-12.39c-2.03-4.8-3.06-9.91-3.06-15.17s1.03-10.37 3.06-15.17a38.67 38.67 0 0 1 8.36-12.39c3.58-3.58 7.75-6.39 12.39-8.36 4.8-2.03 9.91-3.06 15.17-3.06Zm0-5.49C25.91 13.57 6 33.48 6 58.04s19.91 44.47 44.47 44.47S94.94 82.6 94.94 58.04 75.03 13.57 50.47 13.57Z" fill="#fff"/></g><path d="M55.28 7.21h-9.62v7.55h9.62V7.21ZM67.64 0H33.3v7.21h34.34V0ZM20.074 16.997l-9.8 9.124 4.64 4.984 9.8-9.123-4.64-4.985ZM90.66 26.43 81.19 16.96l-4.78 4.78 9.468 9.469 4.78-4.78ZM38.52 68.3c-7.59 0-11.06-3.26-11.06-11.4v-6.14c0-6.99 2.07-11.17 11.29-11.17 3.85 0 7.7.67 9.18 1.04v4.33c-2.59-.22-5.219-.44-8.359-.44-4.81 0-5.29 1.74-5.29 5.29v.93c1.33-.33 3.52-.56 4.88-.56 5.77 0 10.14 1.33 10.14 7.84v1.15c0 7.03-5.14 9.14-10.77 9.14l-.01-.01Zm3.961-10.18c0-3.11-1.33-3.74-4.03-3.74-1.04 0-2.7.11-4.18.44V58c0 4.44 1.52 5.59 4.29 5.59 2.29 0 3.92-1.33 3.92-4.4v-1.07ZM64.172 68.3c-7.7 0-11.25-4.51-11.25-12.69v-3.33c0-8.18 3.55-12.69 11.25-12.69s11.25 4.51 11.25 12.69v3.33c0 8.18-3.55 12.69-11.25 12.69Zm4.29-16.02c0-5.99-1.63-7.51-4.29-7.51s-4.29 1.52-4.29 7.51v3.33c0 5.99 1.67 7.51 4.29 7.51s4.29-1.52 4.29-7.51v-3.33ZM36.35 99.61V89.32c0-1.5-.03-2.33-1.66-2.33-.75 0-1.78.31-2.66.78.08.5.08 1.05.08 1.55v10.29h-4.83V89.32c0-1.5-.06-2.33-1.55-2.33-.92 0-1.94.42-2.72.8v11.82h-4.83V83.8h4.55v1.25a7.796 7.796 0 0 1 4.77-1.66c1.94 0 3.05.64 3.75 1.72 1.78-1.22 3.52-1.72 4.99-1.72 4.36 0 4.94 2.75 4.94 5.83v10.4h-4.83v-.01ZM44.89 81.63V78h5.02v3.63h-5.02Zm.08 17.98V83.8h4.83v15.81h-4.83ZM63.791 99.61V89.59c0-1.91-.36-2.58-1.89-2.58-.89 0-2.11.36-3.38.89v11.71h-4.83V83.8h4.55v1.28c1.61-1 3.38-1.69 5.19-1.69 4.77 0 5.19 2.77 5.19 6.21v10.02h-4.83v-.01ZM77.49 100c-2.22 0-4.77-.36-5.66-.61v-2.94c.69.03 3.25.31 5.41.31 1.94 0 2.58-.44 2.58-1.41s-.5-1.14-2.5-1.89l-1.28-.47c-2.94-1.14-4.47-2.5-4.47-5.1 0-3.47 2.47-4.49 6.52-4.49 2.33 0 4.61.33 5.6.64v3.02c-1.89-.17-3.5-.28-5.16-.28-1.55 0-2.33.06-2.33 1 0 .83.5 1.03 2.16 1.66l1.39.5c3.52 1.28 4.72 2.55 4.72 5.05 0 3.38-2.22 5.02-6.99 5.02l.01-.01Z" fill="#fff"/></g><defs><clipPath id="a"><path fill="#fff" d="M0 0h100v100H0z"/></clipPath></defs></svg>
