<svg width="100" height="100" fill="none" xmlns="http://www.w3.org/2000/svg"><g clip-path="url(#a)"><mask id="b" style="mask-type:luminance" maskUnits="userSpaceOnUse" x="6" y="13" width="89" height="63"><path d="M94.94 13.56H6v61.81h88.94V13.56Z" fill="#fff"/></mask><g mask="url(#b)"><path d="M50.47 19.06c5.26 0 10.37 1.03 15.17 3.06a38.67 38.67 0 0 1 12.39 8.36c3.58 3.58 6.39 7.75 8.36 12.39 2.03 4.8 3.06 9.91 3.06 15.17s-1.03 10.37-3.06 15.17a38.67 38.67 0 0 1-8.36 12.39 38.996 38.996 0 0 1-12.39 8.36c-4.8 2.03-9.91 3.06-15.17 3.06S40.1 95.99 35.3 93.96a38.67 38.67 0 0 1-12.39-8.36 38.996 38.996 0 0 1-8.36-12.39c-2.03-4.8-3.06-9.91-3.06-15.17s1.03-10.37 3.06-15.17a38.67 38.67 0 0 1 8.36-12.39c3.58-3.58 7.75-6.39 12.39-8.36 4.8-2.03 9.91-3.06 15.17-3.06Zm0-5.49C25.91 13.57 6 33.48 6 58.04s19.91 44.47 44.47 44.47S94.94 82.6 94.94 58.04 75.03 13.57 50.47 13.57Z" fill="#fff"/></g><path d="M55.28 7.21h-9.62v7.55h9.62V7.21ZM67.64 0H33.3v7.21h34.34V0ZM20.07 17l-9.8 9.123 4.64 4.985 9.8-9.123L20.07 17ZM90.66 26.436l-9.469-9.468-4.78 4.78 9.468 9.468 4.78-4.78ZM44.981 61.42v6.25h-6.92v-6.25h-12.62v-4.74l13.65-16.5h5.88v16.5h3.66v4.74h-3.66.01Zm-6.59-13.95-7.47 9.21h7.47v-9.21ZM61.01 68.3c-4.11 0-7.7-.7-9.1-1.07v-4.29c1.74.15 4.7.52 7.7.52 4.11 0 5.51-.89 5.51-3.85v-.74c0-2.7-1.07-3.55-5.37-3.55H52.2l1.26-15.13h17.76v4.96H59.01l-.48 5.48h2.63c8.36 0 10.95 2.52 10.95 8.18v.74c0 6.44-4.22 8.77-11.1 8.77v-.02ZM36.35 99.61V89.32c0-1.5-.03-2.33-1.66-2.33-.75 0-1.78.31-2.66.78.08.5.08 1.05.08 1.55v10.29h-4.83V89.32c0-1.5-.06-2.33-1.55-2.33-.92 0-1.94.42-2.72.8v11.82h-4.83V83.8h4.55v1.25a7.796 7.796 0 0 1 4.77-1.66c1.94 0 3.05.64 3.75 1.72 1.78-1.22 3.52-1.72 4.99-1.72 4.36 0 4.94 2.75 4.94 5.83v10.4h-4.83v-.01ZM44.89 81.63V78h5.02v3.63h-5.02Zm.08 17.98V83.8h4.83v15.81h-4.83ZM63.791 99.61V89.59c0-1.91-.36-2.58-1.89-2.58-.89 0-2.11.36-3.38.89v11.71h-4.83V83.8h4.55v1.28c1.61-1 3.38-1.69 5.19-1.69 4.77 0 5.19 2.77 5.19 6.21v10.02h-4.83v-.01ZM77.49 100c-2.22 0-4.77-.36-5.66-.61v-2.94c.69.03 3.25.31 5.41.31 1.94 0 2.58-.44 2.58-1.41s-.5-1.14-2.5-1.89l-1.28-.47c-2.94-1.14-4.47-2.5-4.47-5.1 0-3.47 2.47-4.49 6.52-4.49 2.33 0 4.61.33 5.6.64v3.02c-1.89-.17-3.5-.28-5.16-.28-1.55 0-2.33.06-2.33 1 0 .83.5 1.03 2.16 1.66l1.39.5c3.52 1.28 4.72 2.55 4.72 5.05 0 3.38-2.22 5.02-6.99 5.02l.01-.01Z" fill="#fff"/></g><defs><clipPath id="a"><path fill="#fff" d="M0 0h100v100H0z"/></clipPath></defs></svg>
