<svg version="1.1" id="Layer_1" xmlns="http://www.w3.org/2000/svg" xmlns:xlink="http://www.w3.org/1999/xlink" x="0" y="0" viewBox="0 0 100 100" style="enable-background:new 0 0 100 100" xml:space="preserve"><style>.st0{clip-path:url(#SVGID_00000123407835417368568280000016586279782424592518_)}.st1{clip-path:url(#SVGID_00000168833078875998111890000010761529329142228376_)}.st2{clip-path:url(#SVGID_00000097497812376282120660000000369802154309131694_)}.st3{clip-path:url(#SVGID_00000170271084067039882620000011018782621925205950_)}.st4{clip-path:url(#SVGID_00000176764643848141715070000007743897728890563456_)}.st5{clip-path:url(#SVGID_00000163755238071702284190000003698110378892196492_)}.st6{clip-path:url(#SVGID_00000132807570899095123000000010537656635401634228_)}.st7{clip-path:url(#SVGID_00000159467628641486945660000007459053232198325420_)}.st8{clip-path:url(#SVGID_00000183941136933518601520000001347926012914710956_)}.st9{clip-path:url(#SVGID_00000090983652235471833470000011016766424332029104_)}</style><defs><path id="SVGID_00000105413661350685458700000002287302619721926788_" d="M5.5 13.6h88.9v61.8H5.5z"/></defs><clipPath id="SVGID_00000041285911206040346680000010312412317547612325_"><use xlink:href="#SVGID_00000105413661350685458700000002287302619721926788_" style="overflow:visible"/></clipPath><path d="M50 19.1c5.3 0 10.4 1 15.2 3.1 4.6 2 8.8 4.8 12.4 8.4C81.2 34.2 84 38.4 86 43c2 4.8 3.1 9.9 3.1 15.2s-1 10.4-3.1 15.2c-2 4.6-4.8 8.8-8.4 12.4C74 89.2 69.8 92 65.2 94c-4.8 2-9.9 3-15.2 3s-10.4-1-15.2-3c-4.6-2-8.8-4.8-12.4-8.4C18.8 82 16 77.8 14 73.2c-2-4.8-3.1-9.9-3.1-15.2s1-10.4 3.1-15.2c2-4.6 4.8-8.8 8.4-12.4C26 26.8 30.2 24 34.8 22c4.8-1.9 9.9-2.9 15.2-2.9m0-5.5C25.4 13.6 5.5 33.5 5.5 58s19.9 44.5 44.5 44.5S94.5 82.6 94.5 58 74.6 13.6 50 13.6z" style="clip-path:url(#SVGID_00000041285911206040346680000010312412317547612325_)"/><path d="M45.2 7.2h9.6v7.6h-9.6zM32.8 0h34.3v7.2H32.8z"/><path transform="rotate(-42.954 17.024 24.047)" d="M10.3 20.6h13.4v6.8H10.3z"/><path transform="rotate(45.001 83.066 24.09)" d="M76.4 20.7h13.4v6.8H76.4z"/><path d="M38.1 68.3C30.5 68.3 27 65 27 56.9v-6.1c0-7 2.1-11.2 11.3-11.2 3.8 0 7.7.7 9.2 1V45c-2.6-.2-5.2-.4-8.4-.4-4.8 0-5.3 1.7-5.3 5.3v.9c1.3-.3 3.5-.6 4.9-.6 5.8 0 10.1 1.3 10.1 7.8v1.1c0 7.1-5.1 9.2-10.7 9.2zM42 58.1c0-3.1-1.3-3.7-4-3.7-1 0-2.7.1-4.2.4V58c0 4.4 1.5 5.6 4.3 5.6 2.3 0 3.9-1.3 3.9-4.4v-1.1zM63.7 68.3c-7.7 0-11.2-4.5-11.2-12.7v-3.3c0-8.2 3.6-12.7 11.2-12.7s11.2 4.5 11.2 12.7v3.3c0 8.2-3.5 12.7-11.2 12.7zm4.3-16c0-6-1.6-7.5-4.3-7.5-2.6 0-4.3 1.5-4.3 7.5v3.3c0 6 1.7 7.5 4.3 7.5 2.7 0 4.3-1.5 4.3-7.5v-3.3zM35.9 99.6V89.3c0-1.5 0-2.3-1.7-2.3-.7 0-1.8.3-2.7.8.1.5.1 1.1.1 1.6v10.3h-4.8V89.3c0-1.5-.1-2.3-1.6-2.3-.9 0-1.9.4-2.7.8v11.8h-4.8V83.8h4.5V85c1.3-1 3-1.7 4.8-1.7 1.9 0 3.1.6 3.7 1.7 1.8-1.2 3.5-1.7 5-1.7 4.4 0 4.9 2.7 4.9 5.8v10.4h-4.7zM44.4 81.6V78h5v3.6h-5zm.1 18V83.8h4.8v15.8h-4.8zM63.3 99.6v-10c0-1.9-.4-2.6-1.9-2.6-.9 0-2.1.4-3.4.9v11.7h-4.8V83.8h4.5v1.3c1.6-1 3.4-1.7 5.2-1.7 4.8 0 5.2 2.8 5.2 6.2v10h-4.8zM77 100c-2.2 0-4.8-.4-5.7-.6v-2.9c.7 0 3.2.3 5.4.3 1.9 0 2.6-.4 2.6-1.4 0-.9-.5-1.1-2.5-1.9l-1.2-.5c-2.9-1.1-4.5-2.5-4.5-5.1 0-3.5 2.5-4.5 6.5-4.5 2.3 0 4.6.3 5.6.6v3c-1.9-.2-3.5-.3-5.2-.3-1.6 0-2.3.1-2.3 1 0 .8.5 1 2.2 1.7l1.4.5c3.5 1.3 4.7 2.6 4.7 5 0 3.5-2.2 5.1-7 5.1z"/></svg>
