<svg version="1.1" id="Layer_1" xmlns="http://www.w3.org/2000/svg" xmlns:xlink="http://www.w3.org/1999/xlink" x="0" y="0" viewBox="0 0 100 100" style="enable-background:new 0 0 100 100" xml:space="preserve"><style>.st0{clip-path:url(#SVGID_00000066489461869344411410000015835165246229166495_)}.st1{clip-path:url(#SVGID_00000005962984062794109630000017374546675241879714_)}.st2{clip-path:url(#SVGID_00000021108240240469271790000015668173606013623688_)}.st3{clip-path:url(#SVGID_00000086655173910714543190000003613697007355172229_)}.st4{clip-path:url(#SVGID_00000154406134387701576800000014874002487402644105_)}.st5{clip-path:url(#SVGID_00000096035507016393044840000000662417135395218829_)}.st6{clip-path:url(#SVGID_00000150077098663089662900000014957320400835463853_)}.st7{clip-path:url(#SVGID_00000055699018069644964290000017468456361331385228_)}.st8{clip-path:url(#SVGID_00000002348074419270887800000015776478694888572326_)}.st9{clip-path:url(#SVGID_00000051351827059649398620000012804421142480259001_)}</style><defs><path id="SVGID_00000142883524924210037400000017679209639932130229_" d="M5.5 13.6h88.9v61.8H5.5z"/></defs><clipPath id="SVGID_00000018949391843898417440000000757820148607272111_"><use xlink:href="#SVGID_00000142883524924210037400000017679209639932130229_" style="overflow:visible"/></clipPath><path d="M50 19.1c5.3 0 10.4 1 15.2 3.1 4.6 2 8.8 4.8 12.4 8.4C81.2 34.2 84 38.4 86 43c2 4.8 3.1 9.9 3.1 15.2s-1 10.4-3.1 15.2c-2 4.6-4.8 8.8-8.4 12.4C74 89.2 69.8 92 65.2 94c-4.8 2-9.9 3-15.2 3s-10.4-1-15.2-3c-4.6-2-8.8-4.8-12.4-8.4C18.8 82 16 77.8 14 73.2c-2-4.8-3.1-9.9-3.1-15.2s1-10.4 3.1-15.2c2-4.6 4.8-8.8 8.4-12.4C26 26.8 30.2 24 34.8 22c4.8-1.9 9.9-2.9 15.2-2.9m0-5.5C25.4 13.6 5.5 33.5 5.5 58s19.9 44.5 44.5 44.5S94.5 82.6 94.5 58 74.6 13.6 50 13.6z" style="clip-path:url(#SVGID_00000018949391843898417440000000757820148607272111_)"/><path d="M45.2 7.2h9.6v7.6h-9.6zM32.8 0h34.3v7.2H32.8z"/><path transform="rotate(-42.954 17.024 24.047)" d="M10.3 20.6h13.4v6.8H10.3z"/><path transform="rotate(45.001 83.066 24.09)" d="M76.4 20.7h13.4v6.8H76.4z"/><path d="M44.5 61.4v6.3h-6.9v-6.3H25v-4.7l13.7-16.5h5.9v16.5h3.7v4.7h-3.8zm-6.6-13.9-7.5 9.2h7.5v-9.2zM60.5 68.3c-4.1 0-7.7-.7-9.1-1.1v-4.3c1.7.1 4.7.5 7.7.5 4.1 0 5.5-.9 5.5-3.8v-.7c0-2.7-1.1-3.6-5.4-3.6h-7.5L53 40.2h17.8v5H58.5l-.5 5.5h2.6c8.4 0 11 2.5 11 8.2v.7c0 6.4-4.2 8.7-11.1 8.7zM35.9 99.6V89.3c0-1.5 0-2.3-1.7-2.3-.7 0-1.8.3-2.7.8.1.5.1 1.1.1 1.6v10.3h-4.8V89.3c0-1.5-.1-2.3-1.6-2.3-.9 0-1.9.4-2.7.8v11.8h-4.8V83.8h4.5V85c1.3-1 3-1.7 4.8-1.7 1.9 0 3.1.6 3.7 1.7 1.8-1.2 3.5-1.7 5-1.7 4.4 0 4.9 2.7 4.9 5.8v10.4h-4.7zM44.4 81.6V78h5v3.6h-5zm.1 18V83.8h4.8v15.8h-4.8zM63.3 99.6v-10c0-1.9-.4-2.6-1.9-2.6-.9 0-2.1.4-3.4.9v11.7h-4.8V83.8h4.5v1.3c1.6-1 3.4-1.7 5.2-1.7 4.8 0 5.2 2.8 5.2 6.2v10h-4.8zM77 100c-2.2 0-4.8-.4-5.7-.6v-2.9c.7 0 3.2.3 5.4.3 1.9 0 2.6-.4 2.6-1.4 0-.9-.5-1.1-2.5-1.9l-1.2-.5c-2.9-1.1-4.5-2.5-4.5-5.1 0-3.5 2.5-4.5 6.5-4.5 2.3 0 4.6.3 5.6.6v3c-1.9-.2-3.5-.3-5.2-.3-1.6 0-2.3.1-2.3 1 0 .8.5 1 2.2 1.7l1.4.5c3.5 1.3 4.7 2.6 4.7 5 0 3.5-2.2 5.1-7 5.1z"/></svg>
